<?xml version="1.0" standalone="no"?>
<!DOCTYPE svg PUBLIC "-//W3C//DTD SVG 1.1//EN" "http://www.w3.org/Graphics/SVG/1.1/DTD/svg11.dtd">
<svg xmlns="http://www.w3.org/2000/svg" xmlns:xlink="http://www.w3.org/1999/xlink" xmlns:serif="http://www.serif.com/" width="1000" height="226" viewBox="0 0 1000 226" version="1.1" xml:space="preserve" style="fill-rule:evenodd;clip-rule:evenodd;stroke-linejoin:round;stroke-miterlimit:2;">
    <g transform="matrix(1,0,0,1,-1026.24,-259.007)">
        <g id="Logotype-B---Dark-mode" serif:id="Logotype B - Dark mode" transform="matrix(1,0,0,0.22591,1026.24,259.007)">
            <rect x="0" y="0" width="1000" height="1000" style="fill:none;"/>
            <g transform="matrix(5.70303,0,0,25.2447,-611.253,-8540.99)">
                <path d="M124.146,370.11L135.646,370.11L135.646,375.66L117.146,375.66L117.146,340.76L124.146,340.76L124.146,370.11Z" style="fill:#fff;fill-rule:nonzero;"/>
                <g transform="matrix(1,0,0,1,-3.12023,0)">
                    <path d="M146.996,340.76L146.996,362.36C146.996,364.726 147.613,366.535 148.846,367.785C150.079,369.035 151.813,369.66 154.046,369.66C156.313,369.66 158.063,369.035 159.296,367.785C160.529,366.535 161.146,364.726 161.146,362.36L161.146,340.76L168.196,340.76L168.196,362.31C168.196,365.276 167.554,367.785 166.271,369.835C164.988,371.885 163.271,373.426 161.121,374.46C158.971,375.493 156.579,376.01 153.946,376.01C151.346,376.01 148.988,375.493 146.871,374.46C144.754,373.426 143.079,371.885 141.846,369.835C140.613,367.785 139.996,365.276 139.996,362.31L139.996,340.76L146.996,340.76Z" style="fill:#fff;fill-rule:nonzero;"/>
                </g>
                <g transform="matrix(1,0,0,1,-6.00816,0)">
                    <path d="M212.996,340.76L212.996,375.66L205.996,375.66L205.996,352.96L196.646,375.66L191.346,375.66L181.946,352.96L181.946,375.66L174.946,375.66L174.946,340.76L182.896,340.76L193.996,366.71L205.096,340.76L212.996,340.76Z" style="fill:#fff;fill-rule:nonzero;"/>
                </g>
                <g transform="matrix(1,0,0,1,-11.1615,0)">
                    <path d="M271.196,376.01C268.763,376.01 266.571,375.593 264.621,374.76C262.671,373.926 261.129,372.726 259.996,371.16C258.863,369.593 258.279,367.743 258.246,365.61L265.746,365.61C265.846,367.043 266.354,368.176 267.271,369.01C268.188,369.843 269.446,370.26 271.046,370.26C272.679,370.26 273.963,369.868 274.896,369.085C275.829,368.301 276.296,367.276 276.296,366.01C276.296,364.976 275.979,364.126 275.346,363.46C274.713,362.793 273.921,362.268 272.971,361.885C272.021,361.501 270.713,361.076 269.046,360.61C266.779,359.943 264.938,359.285 263.521,358.635C262.104,357.985 260.888,357.001 259.871,355.685C258.854,354.368 258.346,352.61 258.346,350.41C258.346,348.343 258.863,346.543 259.896,345.01C260.929,343.476 262.379,342.301 264.246,341.485C266.113,340.668 268.246,340.26 270.646,340.26C274.246,340.26 277.171,341.135 279.421,342.885C281.671,344.635 282.913,347.076 283.146,350.21L275.446,350.21C275.379,349.01 274.871,348.018 273.921,347.235C272.971,346.451 271.713,346.06 270.146,346.06C268.779,346.06 267.688,346.41 266.871,347.11C266.054,347.81 265.646,348.826 265.646,350.16C265.646,351.093 265.954,351.868 266.571,352.485C267.188,353.101 267.954,353.601 268.871,353.985C269.788,354.368 271.079,354.81 272.746,355.31C275.013,355.976 276.863,356.643 278.296,357.31C279.729,357.976 280.963,358.976 281.996,360.31C283.029,361.643 283.546,363.393 283.546,365.56C283.546,367.426 283.063,369.16 282.096,370.76C281.129,372.36 279.713,373.635 277.846,374.585C275.979,375.535 273.763,376.01 271.196,376.01Z" style="fill:#fff;fill-rule:nonzero;"/>
                </g>
                <g transform="matrix(1,0,0,1,-7.87682,0)">
                    <g transform="matrix(0.169878,0,0,0.169878,115.407,273.196)">
                        <path d="M672.798,598.746C667.538,596.821 662.427,594.466 657.466,591.683C641.376,582.657 628.621,570.148 619.203,554.156C609.784,538.165 605.075,520.063 605.075,499.853C605.075,479.839 609.784,461.835 619.203,445.844C628.621,429.852 641.376,417.343 657.466,408.317C673.556,399.291 691.215,394.778 710.445,394.778C729.87,394.778 747.579,399.291 763.571,408.317C779.563,417.343 792.219,429.852 801.539,445.844C810.86,461.835 815.52,479.839 815.52,499.853C815.52,520.063 810.86,538.165 801.539,554.156C792.219,570.148 779.514,582.657 763.424,591.683C758.918,594.211 754.288,596.385 749.536,598.205C748.958,598.426 748.379,598.642 747.798,598.853L747.798,556.94C749.042,556.022 750.245,555.056 751.406,554.04C756.967,549.172 761.561,543.177 765.19,536.055C770.488,525.656 773.137,513.588 773.137,499.853C773.137,486.118 770.488,474.099 765.19,463.798C759.892,453.496 752.534,445.598 743.115,440.104C733.697,434.61 722.807,431.863 710.445,431.863C698.083,431.863 687.144,434.61 677.627,440.104C668.111,445.598 660.703,453.496 655.405,463.798C650.107,474.099 647.458,486.118 647.458,499.853C647.458,513.588 650.107,525.656 655.405,536.055C659.771,544.624 665.568,551.561 672.798,556.866L672.798,598.746Z" style="fill:#fff;"/>
                    </g>
                    <path d="M236.452,375.383L236.452,357.277C236.452,355.73 237.422,354.474 238.617,354.474L239.836,354.474C241.031,354.474 242,355.73 242,357.277L242,375.081C241.499,375.248 240.99,375.392 240.473,375.514C240.297,375.584 240.11,375.626 239.918,375.636C238.815,375.859 237.678,375.982 236.506,376.006C236.471,375.805 236.452,375.597 236.452,375.383ZM230.142,375.064L230.142,361.791C230.142,360.244 231.112,358.988 232.306,358.988L233.526,358.988C234.72,358.988 235.69,360.244 235.69,361.791L235.69,375.383C235.69,375.596 235.672,375.805 235.636,376.005C234.485,375.979 233.367,375.857 232.283,375.637C232.046,375.634 231.817,375.581 231.603,375.486C231.109,375.366 230.622,375.226 230.142,375.064Z" style="fill:#f87553;"/>
                </g>
            </g>
        </g>
    </g>
</svg>